<svg width="566" height="20" viewBox="0 0 566 20" fill="none" xmlns="http://www.w3.org/2000/svg">
<path d="M59.5 0L71.1913 15H47.8087L59.5 0Z" fill="#09080C"/>
<path d="M414.5 0L426.191 15H402.809L414.5 0Z" fill="#09080C"/>
<path d="M437.5 0L449.191 15H425.809L437.5 0Z" fill="#09080C"/>
<path d="M460.5 0L472.191 15H448.809L460.5 0Z" fill="#09080C"/>
<path d="M483.5 0L495.191 15H471.809L483.5 0Z" fill="#09080C"/>
<path d="M506.5 0L518.191 15H494.809L506.5 0Z" fill="#09080C"/>
<path d="M529.5 0L541.191 15H517.809L529.5 0Z" fill="#09080C"/>
<path d="M552.5 0L564.191 15H540.809L552.5 0Z" fill="#09080C"/>
<path d="M460.5 0L472.191 15H448.809L460.5 0Z" fill="#09080C"/>
<path d="M36.5 0L48.1913 15H24.8087L36.5 0Z" fill="#09080C"/>
<path d="M13.5 0L25.1913 15H1.80866L13.5 0Z" fill="#09080C"/>
<path d="M391.5 0L403.191 15H379.809L391.5 0Z" fill="#09080C"/>
<path d="M368.5 0L380.191 15H356.809L368.5 0Z" fill="#09080C"/>
<path d="M345.5 0L357.191 15H333.809L345.5 0Z" fill="#09080C"/>
<path d="M322.5 0L334.191 15H310.809L322.5 0Z" fill="#09080C"/>
<path d="M299.5 0L311.191 15H287.809L299.5 0Z" fill="#09080C"/>
<path d="M275.5 0L287.191 15H263.809L275.5 0Z" fill="#09080C"/>
<path d="M251.5 0L263.191 15H239.809L251.5 0Z" fill="#09080C"/>
<path d="M227.5 0L239.191 15H215.809L227.5 0Z" fill="#09080C"/>
<path d="M203.5 0L215.191 15H191.809L203.5 0Z" fill="#09080C"/>
<path d="M179.5 0L191.191 15H167.809L179.5 0Z" fill="#09080C"/>
<path d="M155.5 0L167.191 15H143.809L155.5 0Z" fill="#09080C"/>
<path d="M131.5 0L143.191 15H119.809L131.5 0Z" fill="#09080C"/>
<path d="M107.5 0L119.191 15H95.8087L107.5 0Z" fill="#09080C"/>
<path d="M83.5 0L95.1913 15H71.8087L83.5 0Z" fill="#09080C"/>
</svg>
